<svg width="512" height="512" xmlns="http://www.w3.org/2000/svg">
 <g>
  <title>Layer 1</title>
  <g stroke="null" id="svg_13">
   <path stroke="null" id="svg_1" d="m291.65427,389.40147c-3.53808,-5.06965 -8.32761,-8.77902 -14.349,-10.1673c-5.25063,-1.21062 -10.64967,-1.00429 -15.987,-0.96219l-67.48775,0.5325c-5.77988,0.0456 -11.3216,5.16958 -11.0531,11.31026c0.26648,6.08887 4.85766,11.35914 11.0531,11.31026q29.65394,-0.23398 59.30756,-0.46796c4.66067,-0.03676 9.32403,-0.12279 13.98504,-0.10713c1.04668,0.00349 2.08898,0.05997 3.13465,0.0721c0.25332,0.00293 0.43615,0.00064 0.56534,-0.00495c0.03239,0.01009 0.05971,0.01933 0.10187,0.03115c0.54544,0.15325 1.10504,0.25887 1.65382,0.40444c-0.19227,0.00587 0.35586,0.35578 0.63111,0.47432c0.03778,0.07634 0.1184,0.21163 0.25298,0.42071c0.1879,0.36051 0.74412,1.45525 0.76705,1.42077a49.57444,50.72783 0 0 1 2.06335,6.63975c1.2845,4.98159 1.56683,6.0229 1.75168,10.69665c0.23375,5.90396 4.91668,11.59149 11.0531,11.31026c5.7883,-0.2653 11.30373,-4.97818 11.0531,-11.31026c-0.42228,-10.66994 -2.25255,-22.6556 -8.49691,-31.60341z" fill="#e6e6e6"/>
   <path stroke="null" id="svg_2" d="m197.79767,414.92415c-1.26765,-7.86037 -2.51097,-15.72577 -3.80321,-23.58156c-1.31117,-7.96961 -3.98908,-15.26753 -10.04994,-20.49809c-1.61944,-1.39744 -3.29859,-2.70222 -4.98483,-4.00296c-0.59299,-0.45722 -1.18498,-0.91511 -1.77089,-1.38244c-0.03508,-0.02794 -0.05734,-0.04545 -0.08773,-0.06971c-0.06443,-0.05669 -0.14167,-0.12407 -0.24556,-0.21399c-2.52615,-2.18769 -4.96699,-4.47266 -7.29206,-6.90151q-3.09705,-3.23565 -5.92357,-6.74728q-0.70633,-0.87705 -1.39445,-1.76982c-0.07893,-0.10236 -0.50395,-0.66442 -0.78392,-1.03118c-0.26044,-0.36707 -0.73635,-1.02994 -0.8163,-1.14568q-0.80398,-1.16332 -1.5793,-2.34829a107.85493,110.36426 0 0 1 -9.10983,-17.04703q-0.37797,-0.88446 -0.73804,-1.7793c-0.06443,-0.18205 -0.14775,-0.41589 -0.25837,-0.72722c-0.51204,-1.44088 -1.0231,-2.88 -1.49126,-4.33795q-1.49211,-4.64504 -2.56561,-9.42725q-0.53077,-2.36136 -0.95561,-4.74671q-0.21909,-1.22666 -0.40984,-2.45841c-0.02092,-0.13632 -0.14507,-1.02229 -0.21824,-1.5229c-0.05397,-0.50304 -0.15449,-1.39367 -0.16799,-1.53125q-0.12143,-1.24163 -0.21554,-2.48567q-0.212,-2.79938 -0.28669,-5.6081q-0.1275,-4.99162 0.17473,-9.98252c0.11468,-1.86949 0.27795,-3.73412 0.47899,-5.59525c0.01214,-0.11436 0.02159,-0.20532 0.03036,-0.28729c0.01214,-0.0831 0.02631,-0.17751 0.04318,-0.29502c0.14875,-1.02853 0.30527,-2.05564 0.48033,-3.07953a110.04328,112.60352 0 0 1 2.58315,-11.53183q0.75137,-2.69225 1.63226,-5.34083q0.39263,-1.17574 0.81023,-2.34248c-0.01822,0.05019 0.81664,-2.1318 0.82777,-2.20511c3.31243,-8.00842 8.73036,-15.30915 8.73778,-24.40644c0.00506,-6.15937 -5.08737,-12.05961 -11.0531,-11.77497a11.48515,11.75236 0 0 0 -11.0531,11.77497c0,0.1383 -0.00069,0.2563 -0.00101,0.37084c-0.05566,0.19176 -0.10221,0.35176 -0.14404,0.49325c-0.64596,1.4364 -1.4373,2.8013 -2.14633,4.20203c-1.94158,3.83379 -3.59881,7.79335 -5.17305,11.81104a110.41028,112.97906 0 0 0 -5.8922,20.23707a125.79676,128.72352 0 0 0 -0.66855,45.97636c4.28557,26.72955 18.41835,52.31633 38.0662,69.5152c1.70512,1.49249 3.45173,2.93481 5.21488,4.34801c0.72961,0.5847 1.46529,1.15866 2.20469,1.72889c0.34946,0.2696 1.79721,1.43782 1.16035,0.87182c1.3695,1.19594 1.94597,1.79784 2.29779,2.67872c0.05093,0.2033 0.12042,0.479 0.21453,0.85596c0.24793,0.99345 0.48337,1.9846 0.67901,2.99198c1.71018,8.80181 2.89888,17.75117 4.3274,26.60993c0.98192,6.08679 8.30503,10.04837 13.59679,8.22412c6.15931,-2.12354 8.77184,-7.96269 7.71976,-14.48464z" fill="#e6e6e6"/>
   <path stroke="null" id="svg_3" d="m292.77228,437.75334a17.52903,17.93685 0 0 1 -17.57439,-17.84901l0,-12.90181c-13.20078,1.51215 -58.40406,1.16182 -71.36147,-0.96852l0,13.35431a17.57506,17.98396 0 0 1 -35.14913,0l0,-26.21988a112.81573,115.44047 0 0 1 -58.0288,-100.65299c0,-35.22446 15.60077,-68.08387 42.80228,-90.15248a113.34596,115.98305 0 0 1 61.70569,-24.86373c3.05826,-0.24541 6.13507,-0.36967 9.14559,-0.36967c10.60566,0 58.45618,1.67645 70.46203,5.21091l27.37571,-27.79622a2.87381,2.94067 0 0 1 3.14323,-0.64097a2.83266,2.89857 0 0 1 1.78541,2.71919l0,4.41949l5.33057,-5.40213a2.86724,2.93395 0 0 1 3.14073,-0.64201a2.83387,2.8998 0 0 1 1.78743,2.72022l0,49.38679a112.43712,115.05305 0 0 1 -26.99051,189.35234l0,23.44719a17.52903,17.93685 0 0 1 -17.57435,17.84897zm-16.1928,-32.35409l0,14.50508a16.1933,16.57004 0 0 0 32.38551,0l0,-24.34013l0.39446,-0.19157a112.22789,114.83896 0 0 0 45.96071,-41.1281a110.75574,113.33256 0 0 0 -19.13515,-146.29826l-0.22955,-0.21089l0,-50.01737a1.45289,1.48669 0 0 0 -0.92693,-1.41068a1.48471,1.51925 0 0 0 -1.64508,0.33447l-7.68674,7.7903l0,-7.80963a1.45289,1.48669 0 0 0 -0.92694,-1.41067a1.48827,1.52289 0 0 0 -1.64778,0.33688l-27.96181,28.39128l-0.39736,-0.12736c-11.16087,-3.5745 -59.76461,-5.26924 -70.45089,-5.26924c-2.9746,0 -6.01515,0.12287 -9.03698,0.36553a111.96441,114.56935 0 0 0 -60.95567,24.56171c-26.86908,21.79904 -42.27927,54.25463 -42.27927,89.04486a111.43922,114.03194 0 0 0 57.67253,99.61857l0.35637,0.20192l0,27.0524a16.19349,16.57024 0 0 0 32.38585,0l0,-15.04667l0.8185,0.1574c11.64424,2.24183 60.67587,2.59527 72.52554,1.00477l0.78068,-0.10458z" fill="#3f3d56"/>
   <path stroke="null" id="svg_4" d="m243.42017,73.91621a48.37894,49.50451 0 0 0 -48.33676,47.96259c-0.01382,0.50189 -0.02057,1.01085 -0.02057,1.51982a48.35733,49.4824 0 1 0 48.35733,-49.4824zm0,97.55102a47.02474,48.11881 0 0 1 -46.97569,-48.06862q0,-0.98611 0.04149,-1.95102a46.97431,48.06721 0 1 1 46.9342,50.01964z" fill="#3f3d56"/>
   <path stroke="null" id="svg_5" d="m284.17849,123.39862a40.75832,41.7066 0 0 1 -81.51664,0c0,-1.32189 0.06206,-2.62257 0.17945,-3.90911a40.75832,41.7066 0 0 1 81.3372,3.90911z" fill="#e6e6e6"/>
   <path stroke="null" id="svg_6" d="m255.55776,126.16963a9.7043,9.93008 0 0 0 -3.77859,-3.06084a36.70924,37.56331 0 0 0 -5.67868,-1.90861l0,-11.35268a16.16231,16.53834 0 0 1 8.07563,3.76773l2.25225,-4.9129a14.89453,15.24106 0 0 0 -4.39385,-2.77808a21.59453,22.09694 0 0 0 -5.57479,-1.46327l0,-5.7541l-5.21555,0l0,5.81065a14.28091,14.61316 0 0 0 -5.69926,1.95809a11.3286,11.59217 0 0 0 -3.86191,3.87377a9.51336,9.73469 0 0 0 -1.37455,5.15324a8.6095,8.80981 0 0 0 1.58198,5.51375a10.02394,10.25715 0 0 0 3.93746,3.19515a36.40068,37.24757 0 0 0 5.7755,1.95809l0,10.87906a17.26227,17.66389 0 0 1 -9.60938,-3.92325l-2.25191,4.91996a16.98062,17.37569 0 0 0 5.13966,2.98308a23.59936,24.14842 0 0 0 6.36244,1.35723l0,5.70461l5.21555,0l0,-5.81065a13.49757,13.8116 0 0 0 7.74408,-3.63342a9.38795,9.60637 0 0 0 2.88775,-7.1396a8.32775,8.52151 0 0 0 -1.53383,-5.33703zm-13.95434,-6.17116a10.01589,10.24892 0 0 1 -3.47501,-1.90861a3.67547,3.76099 0 0 1 -1.22951,-2.95481a4.64615,4.75425 0 0 1 1.25717,-3.40015a6.35706,6.50496 0 0 1 3.44735,-1.83085l0,10.09441zm7.77171,15.04265a5.91168,6.04922 0 0 1 -3.27465,1.74602l0,-9.35924a9.1462,9.35899 0 0 1 3.27465,1.67533a3.21766,3.29252 0 0 1 1.12595,2.6155a4.70026,4.80962 0 0 1 -1.12595,3.32239z" fill="#6c63ff"/>
   <path stroke="null" id="svg_7" d="m115.4253,257.17818a67.77487,69.35171 0 0 1 -27.02634,-10.45645a65.99187,67.52722 0 0 1 -11.17327,-9.351c-3.33518,-3.48097 -6.52582,-7.43736 -8.17778,-12.07314a17.47703,17.88365 0 0 1 0.22883,-13.26786a16.81006,17.20116 0 0 1 9.09723,-9.27833c4.13774,-1.68849 9.1369,-1.86911 13.16384,-0.01994a11.80559,12.08025 0 0 1 4.81109,3.96272a7.89947,8.08325 0 0 1 1.25059,2.65661a5.30115,5.42449 0 0 1 0.06242,2.65728a6.22866,6.37357 0 0 1 -3.29789,4.04554a16.62676,17.0136 0 0 1 -5.63163,1.75752c-1.97583,0.27569 -4.8141,0.52653 -6.40251,-1.09639a3.22567,3.30072 0 0 1 -0.7548,-1.13865a2.15149,2.20154 0 0 1 -0.11908,-1.0307c-0.02317,0.15357 0.09583,-0.33391 0.08905,-0.31447c-0.02512,0.07206 -0.13391,0.24769 0.02072,-0.02216a2.34659,2.40119 0 0 1 0.16104,-0.2566c-0.0525,0.06947 -0.16781,0.1854 0.0381,-0.01352a1.35529,1.38682 0 0 1 0.6316,-0.39898c0.09562,-0.0285 0.19262,-0.05119 0.28851,-0.07799c0.2437,-0.06812 -0.2429,0.00372 0.00642,-0.00446c0.09621,-0.00315 0.19357,-0.00071 0.28945,-0.00513c0.24455,-0.01125 -0.24128,-0.06825 -0.00691,-0.00796c0.091,0.02341 0.18115,0.04628 0.2708,0.07518c0.19487,0.06282 -0.13798,-0.14628 -0.00593,0.01022c0.15474,0.1834 -0.16249,-0.17838 0.0134,-0.00084a3.19462,3.26895 0 0 1 0.24709,0.27873a1.62981,1.66773 0 0 0 2.29007,0a1.65752,1.69608 0 0 0 0,-2.34335c-1.59676,-2.02549 -4.75081,-1.52501 -6.36609,0.18687c-2.06002,2.18322 -1.24424,5.64324 0.75958,7.54819c2.26844,2.15656 5.48123,2.30647 8.39921,1.94476a20.59815,21.07738 0 0 0 7.09414,-2.0514a9.94661,10.17803 0 0 0 4.85231,-5.36401a9.10072,9.31245 0 0 0 -0.72979,-7.61244c-2.57627,-4.95614 -7.91093,-7.49711 -13.18385,-7.93724a20.59484,21.074 0 0 0 -15.07283,5.06331a20.83111,21.31576 0 0 0 -6.83097,14.19085c-0.46027,5.6523 1.68289,11.14151 4.80756,15.70311a58.46226,59.82243 0 0 0 11.59156,12.2669a70.79046,72.43745 0 0 0 29.57534,14.27264q1.92902,0.40777 3.87877,0.69811a1.67276,1.71167 0 0 0 1.99192,-1.15729a1.6312,1.66915 0 0 0 -1.13098,-2.03827l-0.00001,0.00001z" fill="#3f3d56"/>
   <path stroke="null" id="svg_8" d="m269.7441,185.16273q-21.18265,-0.30593 -42.23184,1.10016c-4.79656,0.32049 -8.9466,2.05523 -8.9466,4.9709c0,2.43775 4.11703,5.29361 8.9466,4.97086q21.0385,-1.4058 42.23184,-1.10016c11.51865,0.16637 11.51186,-9.77554 0,-9.94177z" fill="#ccc"/>
   <path stroke="null" id="svg_9" d="m248.8719,194.6121c-1.52618,0 -37.37725,-0.05833 -37.37725,-5.12567c0,-5.067 35.85107,-5.12531 37.37725,-5.12531s37.37725,0.05833 37.37725,5.12531c0,5.06734 -35.85107,5.12567 -37.37725,5.12567zm-35.97538,-5.12567c0.98108,1.53632 14.15926,3.71189 35.97538,3.71189s34.99413,-2.17556 35.97537,-3.71189c-0.98107,-1.53597 -14.15925,-3.71153 -35.97537,-3.71153s-34.9943,2.17557 -35.97538,3.71154l0,-0.00001z" fill="#3f3d56"/>
   <path stroke="null" id="svg_10" d="m362.61791,327.82604c7.93634,-0.2255 17.81354,-0.50738 25.42283,-6.19525a19.52384,19.97808 0 0 0 7.68227,-14.91776c0.15532,-4.49201 -1.43069,-8.41306 -4.46606,-11.03746c-3.97432,-3.4365 -9.77785,-4.24254 -16.0321,-2.36178l6.47988,-48.456l-4.75676,-0.6669l-7.61775,56.96618l3.97227,-1.86518c4.60526,-2.16143 10.9269,-3.26135 14.85522,0.13554a8.43864,8.63497 0 0 1 2.76726,7.11283a14.75651,15.09983 0 0 1 -5.71653,11.12265c-5.92163,4.42603 -13.79467,4.99697 -22.72415,5.25246l0.13363,4.91065z" fill="#3f3d56"/>
   <rect stroke="null" id="svg_11" x="323.60679" y="249.03642" width="25.8589" height="4.91302" fill="#3f3d56"/>
   <path stroke="null" id="svg_12" d="m511.01375,438.08379l-510.02753,0a0.82255,0.84169 0 0 1 0,-1.68337l510.02753,0a0.82254,0.84168 0 0 1 0,1.68337z" fill="#3f3d56"/>
  </g>
 </g>

</svg>